<svg width="109" height="109" viewBox="0 0 109 109" fill="none" xmlns="http://www.w3.org/2000/svg">
<g clip-path="url(#clip0_9_49)">
<path d="M54.5 109C84.5995 109 109 84.5995 109 54.5C109 24.4005 84.5995 0 54.5 0C24.4005 0 0 24.4005 0 54.5C0 84.5995 24.4005 109 54.5 109Z" fill="#4F2B4F"/>
<path d="M76.3804 34.9666L36.0364 82.5725L61.9542 108.49C84.6204 105.389 102.846 88.3546 107.715 66.301L76.3804 34.9666Z" fill="#462147"/>
<path d="M80.5572 54.2905L73.9497 80.7202C73.4576 82.6888 71.6886 84.0702 69.6594 84.0702H39.3406C37.3114 84.0702 35.5424 82.6892 35.0503 80.7202L28.4428 54.2905H80.5572Z" fill="#EF717A"/>
<path d="M25.5067 51.946C25.5067 37.648 38.4876 26.0573 54.5 26.0573C70.5124 26.0573 83.4933 37.648 83.4933 51.946C83.4933 66.2441 70.5124 58.4181 54.5 58.4181C38.4876 58.4181 25.5067 66.2441 25.5067 51.946Z" fill="#F0DEB4"/>
<path d="M54.5 26.0573C38.5838 26.0573 25.6686 37.5107 25.5141 51.6899C28.1282 52.9142 30.9204 53.6093 33.5808 53.766C48.9949 54.133 64.4091 53.766 80.5572 50.83C81.5797 50.6028 82.5317 50.234 83.381 49.7363C82.124 36.4735 69.6782 26.0573 54.5 26.0573Z" fill="#D5C295"/>
<path d="M54.5 30.2778C57.8444 30.2778 60.5555 27.5666 60.5555 24.2222C60.5555 20.8778 57.8444 18.1667 54.5 18.1667C51.1556 18.1667 48.4444 20.8778 48.4444 24.2222C48.4444 27.5666 51.1556 30.2778 54.5 30.2778Z" fill="#C63C22"/>
<path d="M54.3778 54.2905V84.0702H69.6594C71.6886 84.0702 73.4576 82.6892 73.9497 80.7202L80.5572 54.2905H54.3778Z" fill="#D95459"/>
<path d="M54.5 26.0573C54.4589 26.0573 54.4189 26.0598 54.3778 26.0602V58.4192C54.4185 58.4192 54.4593 58.4181 54.5 58.4181C70.5124 58.4181 83.4933 66.2441 83.4933 51.946C83.4933 37.648 70.5127 26.0573 54.5 26.0573Z" fill="#D8C49A"/>
<path d="M83.381 49.7363C82.124 36.4735 69.6782 26.0573 54.5 26.0573C54.4589 26.0573 54.4189 26.0598 54.3778 26.0598V53.6489C62.9631 53.2849 71.6482 52.4496 80.5572 50.83C81.5797 50.6028 82.5317 50.234 83.381 49.7363Z" fill="#BAA479"/>
<path d="M54.5 18.1667C54.4589 18.1667 54.4189 18.1722 54.3778 18.1729V30.2716C54.4189 30.2723 54.4589 30.2778 54.5 30.2778C57.8445 30.2778 60.5555 27.5667 60.5555 24.2222C60.5555 20.8777 57.8445 18.1667 54.5 18.1667Z" fill="#A52923"/>
</g>
<defs>
<clipPath id="clip0_9_49">
<rect width="109" height="109" fill="white"/>
</clipPath>
</defs>
</svg>
